<svg width="31" height="41" viewBox="0 0 31 41" fill="none" xmlns="http://www.w3.org/2000/svg">
<path d="M31 41C15.2854 32.1564 21.0072 7.96354 19.0878 0.238096C16.6975 -2.71997 13.4555 22.8617 10.075 22.8617C6.69463 22.8617 3.45267 6.37728 1.06236 9.33535C-1.32795 12.2934 1.06236 28.3797 1.06236 32.563H4.04893C4.04893 29.7659 2.45071 16.9205 4.04893 14.9426C5.64715 12.9648 7.81481 32.563 10.075 32.563C12.3353 32.563 17.9463 7.35751 19.5446 9.33535C16.1011 9.33535 16.1011 22.8617 16.1011 32.563L31 41Z" fill="#76CCFB"/>
<path d="M19.373 20.2472C19.9614 26.421 21.5485 32.7728 25.7793 37.469L16.6011 32.2715C16.6013 27.4755 16.6101 21.833 17.0294 17.3578C17.1225 16.3645 17.2352 15.4356 17.371 14.5909C17.6516 13.7538 17.9213 12.9831 18.1764 12.3067C18.4989 11.4514 18.7891 10.7711 19.0391 10.3035C19.0247 13.381 19.0445 16.8004 19.373 20.2472ZM19.049 8.61968C19.0486 8.67558 19.0483 8.73162 19.048 8.78781C19.0117 8.8033 18.9778 8.82073 18.9466 8.83904C18.8471 8.89745 18.7552 8.97612 18.6703 9.06648C18.4303 9.20138 18.2157 9.38898 18.0265 9.61222C17.6392 10.0692 17.332 10.7021 17.0806 11.439C16.8025 12.2544 16.5783 13.2418 16.3969 14.3508C15.8311 16.0428 15.2257 17.9873 14.6138 19.9525L14.5807 20.0588C13.6368 23.0903 12.6779 26.1645 11.8149 28.481C11.3825 29.6416 10.9815 30.5915 10.6261 31.2449C10.4472 31.5736 10.2921 31.8043 10.1646 31.946C10.1205 31.995 10.0872 32.0252 10.0645 32.0433C10.0503 32.0323 10.0319 32.0162 10.0093 31.9931C9.91776 31.8999 9.8045 31.7387 9.67563 31.4927C9.41939 31.0036 9.1539 30.2823 8.88329 29.387C8.34392 27.6026 7.81525 25.2348 7.30204 22.9036C7.27426 22.7774 7.24651 22.6513 7.21882 22.5254C6.97253 21.4058 6.72971 20.302 6.49173 19.2906C6.70514 19.7423 6.92061 20.1728 7.13775 20.5714C7.55383 21.3353 7.9909 22.0105 8.45037 22.501C8.90019 22.9812 9.44451 23.3617 10.075 23.3617C10.4521 23.3617 10.7763 23.1825 11.0392 22.9489C11.3021 22.7153 11.5418 22.3946 11.7634 22.0258C12.2073 21.287 12.634 20.2601 13.0456 19.0748C13.8707 16.6985 14.6728 13.5708 15.4373 10.5638C15.4639 10.4589 15.4906 10.3541 15.5171 10.2496C16.2564 7.34079 16.9584 4.57863 17.6185 2.69009C17.9653 1.69787 18.2791 1.01283 18.5475 0.667971C18.5882 0.615701 18.6219 0.578993 18.6484 0.553359C19.0641 2.41342 19.0694 5.22089 19.049 8.61968ZM2.57744 10.4624C3.14037 11.38 3.74019 12.7624 4.37808 14.3088C4.25633 14.2924 4.13096 14.3073 4.01077 14.3565C3.85708 14.4195 3.74296 14.5258 3.66003 14.6284C3.38045 14.9744 3.21226 15.4927 3.09979 16.0548C2.98372 16.6348 2.91334 17.3371 2.87528 18.1124C2.7991 19.6642 2.85014 21.5629 2.95029 23.4718C3.04676 25.3108 3.1896 27.1728 3.3114 28.7605L3.32565 28.9461C3.42522 30.2449 3.50713 31.3317 3.53689 32.063H1.55352C1.51853 30.9686 1.38383 29.3713 1.22434 27.5414C1.20874 27.3624 1.19288 27.1811 1.17684 26.9975C1.00063 24.9815 0.801556 22.7041 0.665073 20.4594C0.516026 18.008 0.442777 15.6123 0.553157 13.6524C0.608364 12.6722 0.70885 11.8146 0.864041 11.1202C1.02178 10.4144 1.22503 9.92957 1.45126 9.64961C1.55927 9.51594 1.62883 9.48835 1.64973 9.48275C1.66077 9.4798 1.69141 9.47199 1.76748 9.51135C1.95903 9.61046 2.23441 9.90321 2.57744 10.4624Z" stroke="black" stroke-opacity="0.2"/>
</svg>
